<?xml version="1.0" encoding="UTF-8" standalone="no"?>
<!-- Created with Inkscape (http://www.inkscape.org/) -->

<svg
   width="92"
   height="56"
   viewBox="0 0 24.341664 14.816665"
   version="1.1"
   id="svg1"
   inkscape:version="1.3.2 (091e20e, 2023-11-25)"
   sodipodi:docname="v1RainIcon.svg"
   xmlns:inkscape="http://www.inkscape.org/namespaces/inkscape"
   xmlns:sodipodi="http://sodipodi.sourceforge.net/DTD/sodipodi-0.dtd"
   xmlns="http://www.w3.org/2000/svg"
   xmlns:svg="http://www.w3.org/2000/svg">
  <sodipodi:namedview
     id="namedview1"
     pagecolor="#ffffff"
     bordercolor="#000000"
     borderopacity="0.25"
     inkscape:showpageshadow="2"
     inkscape:pageopacity="0.0"
     inkscape:pagecheckerboard="0"
     inkscape:deskcolor="#d1d1d1"
     inkscape:document-units="px"
     inkscape:zoom="7.2842977"
     inkscape:cx="42.488653"
     inkscape:cy="25.740299"
     inkscape:window-width="1512"
     inkscape:window-height="830"
     inkscape:window-x="194"
     inkscape:window-y="1118"
     inkscape:window-maximized="0"
     inkscape:current-layer="layer1" />
  <defs
     id="defs1" />
  <g
     inkscape:label="Layer 1"
     inkscape:groupmode="layer"
     id="layer1">
    <rect
       style="fill:#919191;stroke-width:0.352661;fill-opacity:1"
       id="rect1"
       width="19.314581"
       height="2.1166663"
       x="-6.9388939e-18"
       y="12.699999" />
    <rect
       style="fill:#919191;fill-opacity:1;stroke-width:0.0875592"
       id="rect1-4"
       width="2.3812497"
       height="1.0583332"
       x="3.9687495"
       y="6.0854158" />
    <rect
       style="fill:#919191;fill-opacity:1;stroke-width:0.0875592"
       id="rect1-4-3"
       width="2.3812497"
       height="1.0583332"
       x="14.287498"
       y="6.0854158" />
    <rect
       style="fill:#919191;fill-opacity:1;stroke-width:0.323613"
       id="rect2"
       width="2.1166663"
       height="14.816665"
       x="0"
       y="0" />
    <circle
       style="fill:#00a9e6;fill-opacity:1;stroke-width:0.230028"
       id="path2"
       cx="4.3656244"
       cy="10.715624"
       r="0.66145825" />
    <circle
       style="fill:#00a9e6;fill-opacity:1;stroke-width:0.230028"
       id="path2-6"
       cx="10.715624"
       cy="9.6572905"
       r="0.66145825" />
    <circle
       style="fill:#00a9e6;fill-opacity:1;stroke-width:0.230028"
       id="path2-6-0"
       cx="12.832291"
       cy="10.715624"
       r="0.66145825" />
    <circle
       style="fill:#00a9e6;fill-opacity:1;stroke-width:0.230028"
       id="path2-6-0-2"
       cx="14.948956"
       cy="9.6572905"
       r="0.66145825" />
    <circle
       style="fill:#00a9e6;fill-opacity:1;stroke-width:0.230028"
       id="path2-6-4"
       cx="8.5989571"
       cy="10.715624"
       r="0.66145825" />
    <circle
       style="fill:#00a9e6;fill-opacity:1;stroke-width:0.230028"
       id="path2-6-8"
       cx="6.4822907"
       cy="9.6572905"
       r="0.66145825" />
    <rect
       style="fill:#fb8b00;fill-opacity:1;stroke-width:0.261916"
       id="rect3"
       width="7.937499"
       height="2.645833"
       x="6.3499994"
       y="5.291666" />
    <path
       id="rect4"
       style="fill:#00a9e6;fill-opacity:1;stroke-width:0.264583"
       d="m 8.1467887,1.3807941 c -0.05871,-0.00376 -0.1162282,0.00132 -0.1741496,0.00982 -0.054448,0.011103 -0.1114846,0.019106 -0.164331,0.03669 -0.049267,0.016623 -0.099856,0.028358 -0.1488281,0.045475 -0.059148,0.02012 -0.117199,0.04213 -0.177767,0.057878 -0.049208,0.019922 -0.1035842,0.025728 -0.1529622,0.044442 -0.030827,0.013466 -0.064518,0.019598 -0.094051,0.03514 -0.030879,0.011458 -0.062469,0.02938 -0.088883,0.043408 -0.049035,0.030774 -0.099971,0.058388 -0.1503784,0.086816 -0.068457,0.03449 -0.1335376,0.07544 -0.2005046,0.1126547 -0.053546,0.035993 -0.1112824,0.064282 -0.1669148,0.096635 -0.030894,0.018224 -0.059578,0.040552 -0.089917,0.060978 -0.00995,0.00551 -0.021031,0.010542 -0.031523,0.01602 -0.02453,0.01808 -0.021435,0.01578 -0.043925,0.029455 -0.035466,0.018342 -0.072931,0.033167 -0.1085205,0.05116 -0.039828,0.017812 -0.079418,0.035178 -0.1188558,0.053743 -0.041103,0.014847 -0.079296,0.036215 -0.118339,0.05581 -0.060079,0.026674 -0.1182477,0.05725 -0.1782837,0.084233 -0.075915,0.031203 -0.1520006,0.061286 -0.227893,0.092501 -0.05314,0.024697 -0.1107188,0.036077 -0.1648478,0.057361 -0.048288,0.01593 -0.096585,0.031622 -0.144694,0.048059 -0.053126,0.013704 -0.1046671,0.032068 -0.1576131,0.046509 -0.060246,0.015606 -0.1220581,0.019953 -0.1829345,0.032039 -0.069042,0.014023 -0.1391286,0.022582 -0.2092896,0.028422 -0.055208,4.98e-4 -0.1084873,0.013611 -0.1627807,0.022221 -0.06762,0.00637 -0.1341759,0.016718 -0.2010213,0.028422 -0.063738,0.00818 -0.1266623,0.017106 -0.1891357,0.032039 -0.062871,0.015623 -0.1272766,0.022825 -0.1917196,0.027905 -0.045816,-2.36e-4 -0.089753,0.0061 -0.1343587,0.014986 -0.052746,0.011724 -0.1064355,0.017671 -0.1601969,0.022221 -0.05225,0.00383 -0.1042126,0.00494 -0.1565796,0.00568 -0.052302,6.706e-4 -0.1047909,9.414e-4 -0.1570963,0.00103 -0.016029,2.85e-5 -0.032042,0 -0.048059,0 V 4.2498693 H 17.725531 V 3.5723914 c -0.02854,-0.033024 -0.06304,-0.058699 -0.09302,-0.090434 -0.0086,-0.011778 -0.0097,-0.00747 -0.04909,-0.038757 -0.04543,-0.035594 -0.0965,-0.062015 -0.144694,-0.093534 -0.03621,-0.023051 -0.0723,-0.046099 -0.108521,-0.069246 -0.02457,-0.011054 -0.05247,-0.027705 -0.07545,-0.039274 -0.06821,-0.041832 -0.05515,-0.034974 -0.09095,-0.053227 -0.05661,-0.02977 -0.111774,-0.063303 -0.165364,-0.098185 -0.05247,-0.033515 -0.107801,-0.06184 -0.162781,-0.09095 -0.05717,-0.030114 -0.116477,-0.055569 -0.176217,-0.080098 -0.06857,-0.027551 -0.138829,-0.049701 -0.209289,-0.07183 -0.07052,-0.016487 -0.138553,-0.041886 -0.208773,-0.059428 -0.0795,-0.023516 -0.160052,-0.042694 -0.240812,-0.061495 -0.08383,-0.017233 -0.169421,-0.02462 -0.253731,-0.039274 -0.08081,-0.013908 -0.162045,-0.022403 -0.242879,-0.036174 -0.07055,-0.012519 -0.141577,-0.020542 -0.212907,-0.026872 -0.04239,-0.00404 -0.08509,-0.00562 -0.127641,-0.00672 -0.07168,-0.00115 -0.143284,-0.00139 -0.214974,-0.00155 -0.07192,-1.395e-4 -0.144088,3.27e-5 -0.216008,0 -0.05556,-2.27e-5 -0.110838,3.9e-6 -0.166398,0 -0.05735,-3.5e-6 -0.114732,5e-7 -0.172082,0 h -0.197404 -0.221175 -0.196887 -0.19327 -0.157613 c -0.06047,0.00343 -0.119888,-0.00483 -0.179318,-0.014986 -0.06263,-0.00897 -0.125305,-0.014827 -0.187585,-0.026355 -0.07526,-0.011744 -0.149236,-0.029407 -0.224276,-0.042375 -0.07193,-0.016561 -0.143794,-0.033308 -0.216524,-0.045992 -0.05596,-0.00754 -0.109628,-0.025329 -0.164848,-0.03669 -0.06695,-0.012235 -0.1318,-0.033671 -0.19792,-0.049609 -0.08168,-0.024604 -0.164854,-0.044314 -0.247014,-0.067179 -0.07193,-0.016634 -0.14343,-0.032909 -0.21549,-0.049093 -0.0759,-0.017829 -0.15241,-0.034213 -0.22841,-0.051676 -0.07514,-0.014189 -0.146822,-0.040585 -0.220142,-0.061495 -0.05801,-0.016902 -0.110258,-0.047932 -0.166398,-0.069247 -0.04976,-0.021668 -0.101755,-0.03815 -0.152445,-0.057361 -0.05828,-0.021777 -0.11716,-0.040953 -0.1757,-0.062012 -0.07632,-0.026723 -0.151056,-0.058773 -0.224276,-0.093018 -0.05969,-0.022353 -0.113566,-0.057767 -0.173116,-0.080098 -0.04065,-0.013239 -0.07683,-0.03688 -0.117822,-0.048059 -0.05312,-0.014561 -0.106394,-0.027983 -0.159164,-0.043925 -0.0518,-0.01939 -0.105629,-0.031291 -0.158129,-0.048576 -0.054797,-0.014772 -0.10926,-0.031597 -0.1643294,-0.045474 -0.051752,-0.00869 -0.099382,-0.032 -0.1503784,-0.043408 C 9.6699713,1.5696948 9.634679,1.5676757 9.599413,1.5657957 9.5233232,1.5630027 9.4481039,1.5492243 9.3725535,1.5404743 9.2996241,1.5255963 9.2265226,1.5136761 9.1539622,1.4970661 9.09556,1.4804841 9.0354162,1.4708499 8.9751618,1.4645099 8.9092972,1.4537619 8.844538,1.4381767 8.7782746,1.4298867 c -0.05834,-0.00675 -0.1170429,-0.00858 -0.1756999,-0.010335 -0.063486,6.43e-4 -0.1255154,-0.015079 -0.1875854,-0.026355 -0.036369,-0.00657 -0.073234,-0.00813 -0.1100708,-0.00982 -0.052809,-0.00199 -0.1052904,-0.00225 -0.1581298,-0.00258 z" />
  </g>
</svg>
